Coordinates
version=1
nRows=31
nColumns=33
inDegrees=yes

Units are S.I. units (second, meters, Newtons, ...)
Angles are in degrees.

endheader
time	ground_thorax_rot_x	ground_thorax_rot_y	ground_thorax_rot_z	ground_thorax_tx	ground_thorax_ty	ground_thorax_tz	clav_prot_r	clav_elev_r	scapula_abduction_r	scapula_elevation_r	scapula_upward_rot_r	scapula_winging_r	shoulder_elv_r	plane_of_elev_r	axial_rot_r	elbow_flexion_r	pro_sup_r	wrist_flex_r	wrist_dev_r	clav_prot_l	clav_elev_l	scapula_abduction_l	scapula_elevation_l	scapula_upward_rot_l	scapula_winging_l	shoulder_elv_l	plane_of_elev_l	axial_rot_l	elbow_flexion_l	pro_sup_l	wrist_flex_l	wrist_dev_l	
3.6100	34.483763	0.276003	6.352128	-45.186778	798.611338	10.721244	-5.431838	36.041778	45.000000	37.492613	39.099722	-4074.538994	-2101.808708	16.087987	-180.000000	1809.174394	-118.454597	14.012240	12.257958	8.041349	-45.000000	-44.999995	45.000000	-21.106340	3324.367394	-1370.348104	21.055333	-36.720612	2164.034065	18.645105	12.977602	-18.227813	
3.6200	34.487434	0.404828	6.621938	-45.310518	797.665042	10.217174	-5.190043	35.922985	45.000000	37.045747	37.775317	-4074.001410	-2101.937548	16.218822	-180.000000	1808.908014	-117.410583	14.180524	12.116401	8.102577	-45.000000	-44.999991	45.000000	-21.261333	3324.588048	-1370.363211	21.036855	-36.728915	2163.977492	18.918647	12.865968	-18.265740	
3.6300	34.458437	0.548347	6.938484	-45.547855	796.757672	9.703170	-5.089422	35.617885	45.000000	36.544983	36.569603	-4073.419424	-2101.947205	16.293934	-180.000000	1808.685406	-116.317503	14.329219	11.888298	8.184339	-45.000000	-44.999983	45.000000	-21.411886	3324.843327	-1370.354207	20.983406	-36.700377	2163.923116	19.155613	12.748566	-18.341034	
3.6400	34.502463	0.652407	7.142310	-46.026515	795.936825	9.159989	-4.893061	35.533156	45.000000	36.216578	35.533658	-4073.002600	-2101.975266	16.369360	-180.000000	1808.444853	-115.151009	14.460147	11.736010	8.231664	-45.000000	-44.999970	45.000000	-21.553783	3325.043884	-1370.375019	20.960983	-36.691475	2163.874252	19.349941	12.644654	-18.384183	
3.6500	34.581418	0.734760	7.291896	-46.767971	795.204992	8.593297	-4.699366	35.524548	45.000000	35.989612	34.684037	-4072.695409	-2101.963416	16.417627	-180.000000	1808.216986	-113.921405	14.554741	11.600818	8.263542	-45.000000	-44.999946	45.000000	-21.678805	3325.229889	-1370.407946	20.939664	-36.682885	2163.828994	19.484932	12.543079	-18.416303	
3.6600	34.694435	0.791155	7.380587	-47.810450	794.570921	8.005607	-4.517537	35.586821	45.000000	35.861673	34.013618	-4072.501150	-2101.913145	16.450328	-180.000000	1808.008346	-112.629829	14.632046	11.496504	8.288433	-45.000000	-44.999904	45.000000	-21.802895	3325.396915	-1370.439750	20.921911	-36.685880	2163.795012	19.552707	12.453467	-18.441212	
3.6700	34.830981	0.839043	7.447320	-49.163253	794.031542	7.404431	-4.358621	35.691530	45.000000	35.813747	33.487248	-4072.396272	-2101.816952	16.456196	-180.000000	1807.821646	-111.290049	14.665366	11.402896	8.313652	-45.000000	-44.999828	45.000000	-21.925802	3325.567210	-1370.479688	20.891736	-36.701036	2163.769200	19.548900	12.363493	-18.457396	
3.6800	34.978773	0.887447	7.512751	-50.822423	793.579648	6.797779	-4.232227	35.806340	45.000000	35.810346	33.035158	-4072.345115	-2101.674735	16.452140	-180.000000	1807.658635	-109.902224	14.689161	11.326210	8.357482	-45.000000	-44.999691	45.000000	-22.083132	3325.739789	-1370.504985	20.843701	-36.740249	2163.761097	19.475926	12.284294	-18.474590	
3.6900	35.141419	0.949933	7.594255	-52.784065	793.209900	6.190341	-4.102450	35.955753	45.000000	35.857386	32.597576	-4072.336464	-2101.503655	16.435101	-180.000000	1807.500692	-108.464639	14.690617	11.264550	8.419948	-45.000000	-44.999447	45.000000	-22.285001	3325.919815	-1370.529096	20.775957	-36.813510	2163.770782	19.339370	12.210441	-18.485379	
3.7000	35.312703	1.020649	7.683400	-55.044704	792.919156	5.583980	-3.966848	36.125890	45.000000	35.934919	32.136404	-4072.350516	-2101.308310	16.424807	-180.000000	1807.351707	-106.975740	14.708418	11.228152	8.505569	-45.000000	-44.999009	45.000000	-22.549640	3326.103234	-1370.540119	20.699185	-36.930766	2163.799274	19.148251	12.151668	-18.497098	
3.7100	35.485193	1.102998	7.795696	-57.601191	792.706071	4.978190	-3.821635	36.306146	45.000000	36.036277	31.643792	-4072.378112	-2101.090594	16.409285	-180.000000	1807.210340	-105.449528	14.716436	11.194921	8.611611	-45.000000	-44.998225	45.000000	-22.860504	3326.313995	-1370.553092	20.613652	-37.089538	2163.839365	18.909369	12.092105	-18.506181	
3.7200	35.654115	1.186227	7.920214	-60.450367	792.570706	4.370979	-3.658646	36.499032	45.000000	36.149279	31.093796	-4072.416078	-2100.867540	16.410158	-180.000000	1807.080115	-103.898103	14.745748	11.180053	8.742384	-45.000000	-44.996822	45.000000	-23.233254	3326.549800	-1370.555443	20.532827	-37.299867	2163.891974	18.631156	12.038019	-18.514246	
3.7300	35.813529	1.273578	8.072384	-63.588597	792.513879	3.759621	-3.473940	36.693762	45.000000	36.271115	30.472945	-4072.457068	-2100.648065	16.415202	-180.000000	1806.953686	-102.325525	14.778644	11.165249	8.900494	-45.000000	-44.994305	45.000000	-23.662247	3326.828371	-1370.551196	20.452757	-37.568513	2163.961379	18.318872	11.982026	-18.521260	
3.7400	35.957443	1.379250	8.272489	-67.011281	792.536776	3.141397	-3.239838	36.887288	45.000000	36.391172	29.690956	-4072.488392	-2100.454072	16.448844	-180.000000	1806.826462	-100.701177	14.842421	11.158267	9.111656	-45.000000	-44.989804	45.000000	-24.219659	3327.151415	-1370.529944	20.392651	-37.913538	2164.049448	17.971226	11.926710	-18.525998	
3.7500	36.085932	1.510419	8.533662	-70.711804	792.640800	2.514271	-2.958304	37.087543	44.999999	36.513399	28.750776	-4072.509396	-2100.285387	16.498315	-180.000000	1806.692415	-98.999466	14.920017	11.142553	9.377063	-45.000000	-44.981720	45.000000	-24.884958	3327.529387	-1370.507166	20.343668	-38.327975	2164.153395	17.587618	11.866657	-18.527517	
3.7600	36.206799	1.659796	8.838822	-74.681064	792.827760	1.877299	-2.639309	37.293555	44.999998	36.642499	27.689871	-4072.528270	-2100.134972	16.563234	-180.000000	1806.552439	-97.210265	15.022380	11.123374	9.676059	-45.000000	-44.967298	45.000000	-25.648351	3327.941664	-1370.479860	20.299710	-38.820901	2164.274780	17.179470	11.807445	-18.528355	
3.7700	36.326913	1.809894	9.157806	-78.907024	793.100191	1.230806	-2.311413	37.517983	44.999997	36.788849	26.603992	-4072.560830	-2099.987015	16.623976	-180.000000	1806.416258	-95.349201	15.135036	11.096731	9.976869	-45.000000	-44.941300	45.000000	-26.432392	3328.374717	-1370.459898	20.242611	-39.369417	2164.408438	16.762518	11.753512	-18.532852	
3.7800	36.451543	1.935523	9.454444	-83.375179	793.461715	0.576285	-1.994259	37.737603	44.999995	36.955710	25.572938	-4072.600339	-2099.824940	16.655124	-180.000000	1806.285889	-93.451159	15.247515	11.061879	10.220786	-45.000000	-44.895189	45.000000	-27.191362	3328.799034	-1370.432213	20.150926	-39.982985	2164.559016	16.362777	11.712546	-18.548769	
3.7900	36.587465	2.049891	9.743256	-88.068624	793.917014	-0.083955	-1.682560	37.990063	44.999991	37.155171	24.572105	-4072.657049	-2099.660220	16.667240	-180.000000	1806.166592	-91.524125	15.360070	11.017097	10.442943	-45.000000	-44.811311	45.000000	-27.953290	3329.208627	-1370.417697	20.042958	-40.585198	2164.708788	15.982649	11.685020	-18.573999	
3.8000	36.736485	2.155735	10.040759	-92.968687	794.471422	-0.747328	-1.361015	38.275773	44.999984	37.385485	23.550106	-4072.701695	-2099.505665	16.657531	-180.000000	1806.048144	-89.551859	15.475129	10.958755	10.652654	-45.000000	-44.664636	45.000000	-28.780004	3329.577345	-1370.391655	19.916339	-41.132655	2164.864728	15.626224	11.689253	-18.617566	
3.8100	36.898068	2.296356	10.416145	-98.055440	795.130274	-1.411511	-0.993431	38.629182	44.999972	37.649957	22.371585	-4072.722393	-2099.388395	16.652533	-180.000000	1805.924656	-87.477045	15.604870	10.885212	10.893193	-45.000000	-44.391920	45.000000	-29.821982	3329.892777	-1370.351170	19.804638	-41.572540	2165.015793	15.283871	11.720122	-18.674084	
3.8200	37.072698	2.477613	10.897051	-103.308555	795.898598	-2.074430	-0.571685	39.028838	44.999950	37.946779	21.005615	-4072.690210	-2099.307429	16.644944	-180.000000	1805.787249	-85.271792	15.752011	10.796657	11.109535	-45.000000	-43.931260	45.000000	-31.161700	3330.120513	-1370.250755	19.693873	-41.954418	2165.180469	14.969869	11.775333	-18.749022	
3.8300	37.264863	2.726518	11.517293	-108.707484	796.780960	-2.733946	-0.087175	39.495769	44.999911	38.288687	19.421784	-4072.628660	-2099.267808	16.659186	-180.000000	1805.648022	-82.930517	15.926142	10.698625	11.292431	-45.000000	-43.235512	45.000000	-32.866306	3330.269493	-1370.108453	19.622445	-42.289220	2165.340569	14.692704	11.821601	-18.827277	
3.8400	37.478722	3.000838	12.219940	-114.231868	797.781693	-3.387254	0.429604	39.989738	44.999840	38.674995	17.745570	-4072.537580	-2099.247438	16.670885	-180.000000	1805.513051	-80.527592	16.112719	10.592928	11.368602	-45.000000	-42.333963	45.000000	-34.802531	3330.350576	-1369.921733	19.560678	-42.648833	2165.506424	14.489523	11.857349	-18.914773	
3.8500	37.710926	3.290411	12.970488	-119.861183	798.905151	-4.030435	0.957907	40.490924	44.999714	39.101288	16.043725	-4072.442540	-2099.233211	16.681171	-180.000000	1805.395500	-78.155331	16.303455	10.486249	11.338995	-45.000000	-41.278812	45.000000	-36.871327	3330.400197	-1369.710006	19.510426	-43.089514	2165.675699	14.389537	11.860151	-19.006038	
3.8600	37.955744	3.552295	13.692943	-125.574640	800.156010	-4.658279	1.457301	40.963023	44.999488	39.553782	14.435245	-4072.348701	-2099.205301	16.668213	-180.000000	1805.298378	-75.931719	16.479517	10.382133	11.202888	-45.000000	-40.169114	45.000000	-38.881162	3330.445615	-1369.471868	19.425724	-43.679260	2165.865816	14.424710	11.834137	-19.112620	
3.8700	38.204223	3.787651	14.360174	-131.350597	801.538951	-5.264948	1.907498	41.414141	44.999082	40.019130	12.924042	-4072.281067	-2099.167440	16.650260	-180.000000	1805.227111	-73.921619	16.642539	10.287479	11.050633	-45.000000	-39.093157	45.000000	-40.741378	3330.522734	-1369.226294	19.303640	-44.418327	2166.074262	14.597996	11.768812	-19.233347	
3.8800	38.451744	3.956549	14.899761	-137.165759	803.057861	-5.845006	2.290551	41.819422	44.998356	40.476819	11.561039	-4072.247708	-2099.131019	16.630939	-180.000000	1805.168824	-72.156762	16.784828	10.203193	10.951244	-45.000000	-38.147205	45.000000	-42.295286	3330.658002	-1368.989228	19.128169	-45.333484	2166.307784	14.913557	11.686802	-19.378920	
3.8900	38.683894	4.056683	15.312523	-142.995947	804.715322	-6.394494	2.620609	42.185537	44.997054	40.904093	10.329038	-4072.232504	-2099.091953	16.613286	-180.000000	1805.130185	-70.619950	16.914280	10.128557	10.891504	-45.000000	-37.352292	45.000000	-43.474485	3330.868046	-1368.773334	18.886439	-46.378689	2166.553845	15.364778	11.595287	-19.546335	
3.9000	38.895925	4.085603	15.600625	-148.815584	806.511843	-6.911264	2.923251	42.496543	44.994724	41.292345	9.221147	-4072.230794	-2099.053362	16.600888	-180.000000	1805.105627	-69.275624	17.036927	10.060957	10.858802	-45.000000	-36.703674	45.000000	-44.271330	3331.159537	-1368.588846	18.590082	-47.538850	2166.803052	15.946240	11.501708	-19.732463	
3.9100	39.082667	4.065754	15.804860	-154.599075	808.445614	-7.394976	3.225074	42.775435	44.990546	41.639488	8.188216	-4072.220517	-2099.011551	16.591094	-180.000000	1805.100351	-68.071805	17.163553	9.997224	10.816360	-45.000000	-36.172231	45.000000	-44.738195	3331.530296	-1368.440474	18.249789	-48.745262	2167.038902	16.644308	11.404580	-19.928140	
